<?xml version="1.0" encoding="UTF-8"?>
<!DOCTYPE svg PUBLIC "-//W3C//DTD SVG 1.1//EN" "http://www.w3.org/Graphics/SVG/1.1/DTD/svg11.dtd">
<svg xmlns="http://www.w3.org/2000/svg" version="1.1" width="512px" height="512px"  class="logo" viewBox="0 0 512 512" style="shape-rendering:geometricPrecision; text-rendering:geometricPrecision; image-rendering:optimizeQuality; fill-rule:evenodd; clip-rule:evenodd" xmlns:xlink="http://www.w3.org/1999/xlink">
<g><path style="opacity:1" fill="#fd68b3" d="M 255.5,212.5 C 255.5,213.167 255.5,213.833 255.5,214.5C 246.14,223.528 236.807,232.528 227.5,241.5C 227.167,241.5 226.833,241.5 226.5,241.5C 226.489,239.983 225.823,238.816 224.5,238C 199.071,214.406 174.071,190.24 149.5,165.5C 136.515,153.349 123.682,141.015 111,128.5C 100.192,167.391 102.859,205.391 119,242.5C 129.55,265.694 144.383,285.36 163.5,301.5C 163.5,301.833 163.5,302.167 163.5,302.5C 154.651,311.736 145.651,320.736 136.5,329.5C 135.833,329.5 135.167,329.5 134.5,329.5C 82.5046,280.738 59.6713,220.405 66,148.5C 69.3758,124.263 76.8758,101.43 88.5,80C 98.9864,72.6822 109.32,73.0155 119.5,81C 131.654,92.9871 143.654,105.154 155.5,117.5C 188.615,149.396 221.948,181.063 255.5,212.5 Z"/></g>
<g><path style="opacity:1" fill="#45aedf" d="M 376.5,329.5 C 376.167,329.5 375.833,329.5 375.5,329.5C 366.526,320.528 357.192,311.862 347.5,303.5C 347.5,302.833 347.5,302.167 347.5,301.5C 392.458,261.518 411.625,211.185 405,150.5C 404.333,145.833 403.667,141.167 403,136.5C 402.583,133.578 401.583,130.911 400,128.5C 368.395,159.936 336.228,190.936 303.5,221.5C 301.973,223.193 300.64,225.027 299.5,227C 295.167,230.667 290.833,234.333 286.5,238C 285.177,238.816 284.511,239.983 284.5,241.5C 284.167,241.5 283.833,241.5 283.5,241.5C 274.446,231.432 265.113,222.432 255.5,214.5C 255.5,213.833 255.5,213.167 255.5,212.5C 289.052,181.063 322.385,149.396 355.5,117.5C 367.346,105.154 379.346,92.9871 391.5,81C 401.68,73.0155 412.014,72.6822 422.5,80C 445.693,123.353 452.193,169.186 442,217.5C 436.719,239.726 428.386,260.726 417,280.5C 411.251,287.262 406.251,294.595 402,302.5C 394.309,312.355 385.809,321.355 376.5,329.5 Z"/></g>
<g><path style="opacity:1" fill="#b09fd6" d="M 255.5,214.5 C 265.113,222.432 274.446,231.432 283.5,241.5C 274.192,249.805 264.859,258.138 255.5,266.5C 254.737,265.732 253.737,265.232 252.5,265C 244.802,257.636 237.469,249.97 230.5,242C 229.552,241.517 228.552,241.351 227.5,241.5C 236.807,232.528 246.14,223.528 255.5,214.5 Z"/></g>
<g><path style="opacity:1" fill="#45aedf" d="M 226.5,241.5 C 226.833,241.5 227.167,241.5 227.5,241.5C 228.552,241.351 229.552,241.517 230.5,242C 237.469,249.97 244.802,257.636 252.5,265C 253.737,265.232 254.737,265.732 255.5,266.5C 255.5,267.167 255.5,267.833 255.5,268.5C 236.117,286.552 217.117,304.885 198.5,323.5C 185.463,318.814 173.796,311.814 163.5,302.5C 163.5,302.167 163.5,301.833 163.5,301.5C 184.829,281.837 205.829,261.837 226.5,241.5 Z"/></g>
<g><path style="opacity:1" fill="#fd68b3" d="M 283.5,241.5 C 283.833,241.5 284.167,241.5 284.5,241.5C 305.171,261.837 326.171,281.837 347.5,301.5C 347.5,302.167 347.5,302.833 347.5,303.5C 336.618,311.776 324.951,318.776 312.5,324.5C 309.31,320.676 305.977,316.843 302.5,313C 300.14,310.647 297.473,308.647 294.5,307C 281.991,293.658 268.991,280.824 255.5,268.5C 255.5,267.833 255.5,267.167 255.5,266.5C 264.859,258.138 274.192,249.805 283.5,241.5 Z"/></g>
<g><path style="opacity:1" fill="#b09ed6" d="M 163.5,302.5 C 173.796,311.814 185.463,318.814 198.5,323.5C 200.885,325.263 203.552,326.763 206.5,328C 242.34,340.207 277.673,339.04 312.5,324.5C 324.951,318.776 336.618,311.776 347.5,303.5C 357.192,311.862 366.526,320.528 375.5,329.5C 364.645,339.03 352.978,347.363 340.5,354.5C 310.335,370.788 278.002,378.122 243.5,376.5C 240.316,374.586 236.649,373.92 232.5,374.5C 228.931,372.559 225.265,372.226 221.5,373.5C 212.896,370.911 204.229,368.411 195.5,366C 187.949,363.875 180.949,360.709 174.5,356.5C 172.156,353.658 169.156,351.825 165.5,351C 163.338,349.507 161.338,347.84 159.5,346C 156.182,344.454 152.848,342.788 149.5,341C 148.743,339.488 147.743,338.154 146.5,337C 143.359,334.375 140.026,331.875 136.5,329.5C 145.651,320.736 154.651,311.736 163.5,302.5 Z"/></g>
<g><path style="opacity:1" fill="#fd68b3" d="M 375.5,329.5 C 375.833,329.5 376.167,329.5 376.5,329.5C 407.403,360.384 438.903,390.717 471,420.5C 480.175,430.67 480.675,441.17 472.5,452C 463.5,459.333 454.5,459.333 445.5,452C 413.307,421.063 381.307,389.896 349.5,358.5C 347.091,357.299 345.091,355.633 343.5,353.5C 342.583,354.127 341.583,354.461 340.5,354.5C 352.978,347.363 364.645,339.03 375.5,329.5 Z"/></g>
<g><path style="opacity:1" fill="#45aedf" d="M 134.5,329.5 C 135.167,329.5 135.833,329.5 136.5,329.5C 140.026,331.875 143.359,334.375 146.5,337C 147.743,338.154 148.743,339.488 149.5,341C 152.848,342.788 156.182,344.454 159.5,346C 161.338,347.84 163.338,349.507 165.5,351C 169.156,351.825 172.156,353.658 174.5,356.5C 172.072,355.788 169.739,354.788 167.5,353.5C 156.828,364.172 145.828,374.505 134.5,384.5C 111.652,407.181 88.6524,429.681 65.5,452C 52.2953,460.573 41.7953,458.073 34,444.5C 32,439.833 32,435.167 34,430.5C 36,427.167 38,423.833 40,420.5C 72.097,390.717 103.597,360.384 134.5,329.5 Z"/></g>
<g><path style="opacity:0.388" fill="#e789c4" d="M 221.5,373.5 C 225.265,372.226 228.931,372.559 232.5,374.5C 228.802,374.448 225.135,374.114 221.5,373.5 Z"/></g>
<g><path style="opacity:0.557" fill="#e58bc6" d="M 232.5,374.5 C 236.649,373.92 240.316,374.586 243.5,376.5C 239.64,376.192 235.974,375.525 232.5,374.5 Z"/></g>
</svg>
